ffmpeg started on 2016-11-23 at 16:06:04
Report written to "Output/NVENCh264/results/ffmpeg/Tcrowd_run_2160p50fast3000k.log"
Command line:
Tools/ffmpeg/ffmpeg -i Output/NVENCh264/encoded/crowd_run_2160p50fast3000k.mkv -c:v rawvideo -pix_fmt yuv420p Output/NVENCh264/transcoded/crowd_run_2160p50fast3000k.yuv
ffmpeg version N-82227-gdb23fde Copyright (c) 2000-2016 the FFmpeg developers
  built with gcc 5.4.0 (Ubuntu 5.4.0-6ubuntu1~16.04.2) 20160609
  configuration: --prefix=/home/jaroslav/ffmpeg_build --pkg-config-flags=--static --extra-cflags=-I/home/jaroslav/ffmpeg_build/include --extra-ldflags=-L/home/jaroslav/ffmpeg_build/lib --bindir=/home/jaroslav/bin --enable-gpl --enable-libass --enable-libfdk-aac --enable-libfreetype --enable-libmp3lame --enable-libopus --enable-libtheora --enable-libvorbis --enable-libvpx --enable-libx264 --enable-libx265 --enable-nvenc --enable-libmfx --enable-libxvid --enable-libgsm --enable-libopencore-amrnb --enable-version3 --enable-nonfree
  libavutil      55. 35.100 / 55. 35.100
  libavcodec     57. 66.101 / 57. 66.101
  libavformat    57. 57.100 / 57. 57.100
  libavdevice    57.  2.100 / 57.  2.100
  libavfilter     6. 66.100 /  6. 66.100
  libswscale      4.  3.100 /  4.  3.100
  libswresample   2.  4.100 /  2.  4.100
  libpostproc    54.  2.100 / 54.  2.100
Input #0, matroska,webm, from 'Output/NVENCh264/encoded/crowd_run_2160p50fast3000k.mkv':
  Metadata:
    ENCODER         : Lavf57.57.100
  Duration: 00:00:10.00, start: 0.000000, bitrate: 6605 kb/s
    Stream #0:0: Video: h264 (Main), yuv420p(progressive), 3840x2160 [SAR 1:1 DAR 16:9], 50 fps, 50 tbr, 1k tbn, 100 tbc (default)
    Metadata:
      ENCODER         : Lavc57.66.101 h264_nvenc
      DURATION        : 00:00:10.000000000
Output #0, rawvideo, to 'Output/NVENCh264/transcoded/crowd_run_2160p50fast3000k.yuv':
  Metadata:
    encoder         : Lavf57.57.100
    Stream #0:0: Video: rawvideo (I420 / 0x30323449), yuv420p, 3840x2160 [SAR 1:1 DAR 16:9], q=2-31, 200 kb/s, 50 fps, 50 tbn, 50 tbc (default)
    Metadata:
      DURATION        : 00:00:10.000000000
      encoder         : Lavc57.66.101 rawvideo
Stream mapping:
  Stream #0:0 -> #0:0 (h264 (native) -> rawvideo (native))
Press [q] to stop, [?] for help
frame=   17 fps=0.0 q=-0.0 size=  206550kB time=00:00:00.34 bitrate=4976640.0kbits/s speed=0.64x    frame=   34 fps= 32 q=-0.0 size=  413100kB time=00:00:00.68 bitrate=4976640.0kbits/s speed=0.645x    frame=   51 fps= 32 q=-0.0 size=  619650kB time=00:00:01.02 bitrate=4976640.0kbits/s speed=0.647x    frame=   68 fps= 32 q=-0.0 size=  826200kB time=00:00:01.36 bitrate=4976640.0kbits/s speed=0.649x    frame=   85 fps= 32 q=-0.0 size= 1032750kB time=00:00:01.70 bitrate=4976640.0kbits/s speed=0.649x    frame=  102 fps= 32 q=-0.0 size= 1239300kB time=00:00:02.04 bitrate=4976640.0kbits/s speed=0.649x    frame=  118 fps= 32 q=-0.0 size= 1433700kB time=00:00:02.36 bitrate=4976640.0kbits/s speed=0.648x    frame=  135 fps= 32 q=-0.0 size= 1640250kB time=00:00:02.70 bitrate=4976640.0kbits/s speed=0.648x    frame=  152 fps= 32 q=-0.0 size= 1846800kB time=00:00:03.04 bitrate=4976640.0kbits/s speed=0.649x    frame=  169 fps= 32 q=-0.0 size= 2053350kB time=00:00:03.38 bitrate=4976640.0kbits/s speed=0.65x    frame=  186 fps= 33 q=-0.0 size= 2259900kB time=00:00:03.72 bitrate=4976640.0kbits/s speed=0.65x    frame=  203 fps= 33 q=-0.0 size= 2466450kB time=00:00:04.06 bitrate=4976640.0kbits/s speed=0.65x    frame=  220 fps= 33 q=-0.0 size= 2673000kB time=00:00:04.40 bitrate=4976640.0kbits/s speed=0.651x    frame=  237 fps= 33 q=-0.0 size= 2879550kB time=00:00:04.74 bitrate=4976640.0kbits/s speed=0.651x    frame=  254 fps= 33 q=-0.0 size= 3086100kB time=00:00:05.08 bitrate=4976640.0kbits/s speed=0.651x    frame=  271 fps= 33 q=-0.0 size= 3292650kB time=00:00:05.42 bitrate=4976640.0kbits/s speed=0.651x    frame=  288 fps= 33 q=-0.0 size= 3499200kB time=00:00:05.76 bitrate=4976640.0kbits/s speed=0.65x    frame=  304 fps= 32 q=-0.0 size= 3693600kB time=00:00:06.08 bitrate=4976640.0kbits/s speed=0.648x    frame=  315 fps= 32 q=-0.0 size= 3827250kB time=00:00:06.30 bitrate=4976640.0kbits/s speed=0.637x    frame=  331 fps= 32 q=-0.0 size= 4021650kB time=00:00:06.62 bitrate=4976640.0kbits/s speed=0.636x    frame=  347 fps= 32 q=-0.0 size= 4216050kB time=00:00:06.94 bitrate=4976640.0kbits/s speed=0.635x    frame=  363 fps= 32 q=-0.0 size= 4410450kB time=00:00:07.26 bitrate=4976640.0kbits/s speed=0.634x    frame=  379 fps= 32 q=-0.0 size= 4604850kB time=00:00:07.58 bitrate=4976640.0kbits/s speed=0.634x    frame=  395 fps= 32 q=-0.0 size= 4799250kB time=00:00:07.90 bitrate=4976640.0kbits/s speed=0.634x    frame=  411 fps= 32 q=-0.0 size= 4993650kB time=00:00:08.22 bitrate=4976640.0kbits/s speed=0.634x    frame=  427 fps= 32 q=-0.0 size= 5188050kB time=00:00:08.54 bitrate=4976640.0kbits/s speed=0.633x    frame=  443 fps= 32 q=-0.0 size= 5382450kB time=00:00:08.86 bitrate=4976640.0kbits/s speed=0.633x    frame=  458 fps= 31 q=-0.0 size= 5564700kB time=00:00:09.16 bitrate=4976640.0kbits/s speed=0.622x    frame=  474 fps= 31 q=-0.0 size= 5759100kB time=00:00:09.48 bitrate=4976640.0kbits/s speed=0.622x    frame=  490 fps= 31 q=-0.0 size= 5953500kB time=00:00:09.80 bitrate=4976640.0kbits/s speed=0.622x    frame=  500 fps= 31 q=-0.0 Lsize= 6075000kB time=00:00:10.00 bitrate=4976640.0kbits/s speed=0.622x    
video:6075000kB audio:0kB subtitle:0kB other streams:0kB global headers:0kB muxing overhead: 0.000000%
